<?xml version="1.0" encoding="UTF-8" standalone="no"?>
<!DOCTYPE svg PUBLIC "-//W3C//DTD SVG 1.1//EN"
 "http://www.w3.org/Graphics/SVG/1.1/DTD/svg11.dtd">
<!-- Generated by graphviz version 2.43.0 (0)
 -->
<!-- Title: G Pages: 1 -->
<svg width="546pt" height="787pt"
 viewBox="0.00 0.00 546.00 787.43" xmlns="http://www.w3.org/2000/svg" xmlns:xlink="http://www.w3.org/1999/xlink">
<g id="graph0" class="graph" transform="scale(1 1) rotate(0) translate(4 783.43)">
<title>G</title>
<polygon fill="white" stroke="transparent" points="-4,4 -4,-783.43 542,-783.43 542,4 -4,4"/>
<g id="clust1" class="cluster">
<title>cluster_bolson</title>
<polygon fill="#dddddd" stroke="#dddddd" points="8,-77 8,-702.43 530,-702.43 530,-77 8,-77"/>
<text text-anchor="middle" x="40.5" y="-687.23" font-family="Times,serif" font-size="14.00">Bolson</text>
</g>
<g id="clust2" class="cluster">
<title>cluster_client</title>
<polygon fill="white" stroke="white" points="207,-596.43 207,-671.43 343,-671.43 343,-596.43 207,-596.43"/>
<text text-anchor="middle" x="236.5" y="-656.23" font-family="Times,serif" font-size="14.00">Client</text>
</g>
<g id="clust3" class="cluster">
<title>cluster_converter</title>
<polygon fill="white" stroke="white" points="32,-285.74 32,-378.48 506,-378.48 506,-285.74 32,-285.74"/>
<text text-anchor="middle" x="76.5" y="-363.28" font-family="Times,serif" font-size="14.00">Converter</text>
</g>
<g id="clust4" class="cluster">
<title>cluster_publisher</title>
<polygon fill="white" stroke="white" points="16,-85 16,-177.74 522,-177.74 522,-85 16,-85"/>
<text text-anchor="middle" x="58.5" y="-162.54" font-family="Times,serif" font-size="14.00">Publisher</text>
</g>
<!-- Client -->
<g id="node1" class="node">
<title>Client</title>
<ellipse fill="none" stroke="black" cx="275" cy="-622.43" rx="60.39" ry="18"/>
<text text-anchor="middle" x="275" y="-618.73" font-family="Times,serif" font-size="14.00">TCP Client</text>
</g>
<!-- Buffer0 -->
<g id="node2" class="node">
<title>Buffer0</title>
<polygon fill="none" stroke="black" points="163,-567.43 55,-567.43 55,-531.43 163,-531.43 163,-567.43"/>
<text text-anchor="middle" x="109" y="-545.73" font-family="Times,serif" font-size="14.00">TCP Buffer 0</text>
</g>
<!-- Client&#45;&gt;Buffer0 -->
<g id="edge1" class="edge">
<title>Client&#45;&gt;Buffer0</title>
<path fill="none" stroke="black" d="M241.81,-607.24C217.85,-596.99 185.12,-582.99 158.15,-571.45"/>
<polygon fill="black" stroke="black" points="159.44,-568.2 148.87,-567.49 156.69,-574.64 159.44,-568.2"/>
</g>
<!-- Buffer1 -->
<g id="node3" class="node">
<title>Buffer1</title>
<polygon fill="none" stroke="black" points="289,-567.43 181,-567.43 181,-531.43 289,-531.43 289,-567.43"/>
<text text-anchor="middle" x="235" y="-545.73" font-family="Times,serif" font-size="14.00">TCP Buffer 1</text>
</g>
<!-- Client&#45;&gt;Buffer1 -->
<g id="edge2" class="edge">
<title>Client&#45;&gt;Buffer1</title>
<path fill="none" stroke="black" d="M265.52,-604.61C260.81,-596.24 255.01,-585.94 249.73,-576.58"/>
<polygon fill="black" stroke="black" points="252.65,-574.63 244.69,-567.63 246.55,-578.06 252.65,-574.63"/>
</g>
<!-- BufferD -->
<g id="node4" class="node">
<title>BufferD</title>
<text text-anchor="middle" x="314" y="-545.73" font-family="Times,serif" font-size="14.00">...</text>
</g>
<!-- Client&#45;&gt;BufferD -->
<g id="edge3" class="edge">
<title>Client&#45;&gt;BufferD</title>
<path fill="none" stroke="transparent" d="M284.24,-604.61C290.72,-592.81 299.32,-577.16 305.6,-565.72"/>
<polygon fill="transparent" stroke="transparent" points="308.67,-567.4 310.42,-556.95 302.54,-564.03 308.67,-567.4"/>
</g>
<!-- BufferB -->
<g id="node5" class="node">
<title>BufferB</title>
<polygon fill="none" stroke="black" points="462.5,-567.43 339.5,-567.43 339.5,-531.43 462.5,-531.43 462.5,-567.43"/>
<text text-anchor="middle" x="401" y="-545.73" font-family="Times,serif" font-size="14.00">TCP Buffer B&#45;1</text>
</g>
<!-- Client&#45;&gt;BufferB -->
<g id="edge4" class="edge">
<title>Client&#45;&gt;BufferB</title>
<path fill="none" stroke="black" d="M302.03,-606.2C319.38,-596.42 342.21,-583.56 361.57,-572.65"/>
<polygon fill="black" stroke="black" points="363.48,-575.59 370.48,-567.63 360.04,-569.49 363.48,-575.59"/>
</g>
<!-- BufferSelector -->
<g id="node6" class="node">
<title>BufferSelector</title>
<ellipse fill="none" stroke="black" cx="281" cy="-442.96" rx="69.09" ry="37.45"/>
<text text-anchor="middle" x="281" y="-454.26" font-family="Times,serif" font-size="14.00">Concurrent</text>
<text text-anchor="middle" x="281" y="-439.26" font-family="Times,serif" font-size="14.00">buffer</text>
<text text-anchor="middle" x="281" y="-424.26" font-family="Times,serif" font-size="14.00">selection</text>
</g>
<!-- Buffer0&#45;&gt;BufferSelector -->
<g id="edge5" class="edge">
<title>Buffer0&#45;&gt;BufferSelector</title>
<path fill="none" stroke="black" d="M137.02,-531.42C161.28,-516.68 197.06,-494.95 226.88,-476.83"/>
<polygon fill="black" stroke="black" points="228.79,-479.77 235.52,-471.58 225.16,-473.78 228.79,-479.77"/>
</g>
<!-- Buffer1&#45;&gt;BufferSelector -->
<g id="edge6" class="edge">
<title>Buffer1&#45;&gt;BufferSelector</title>
<path fill="none" stroke="black" d="M242.6,-531.18C247.62,-519.77 254.46,-504.24 260.97,-489.44"/>
<polygon fill="black" stroke="black" points="264.36,-490.44 265.19,-479.88 257.95,-487.62 264.36,-490.44"/>
<text text-anchor="middle" x="268" y="-502.23" font-family="Times,serif" font-size="14.00">Raw JSON data</text>
</g>
<!-- BufferD&#45;&gt;BufferSelector -->
<g id="edge7" class="edge">
<title>BufferD&#45;&gt;BufferSelector</title>
<path fill="none" stroke="transparent" d="M311.94,-541.9C308.64,-531.46 301.9,-510.13 295.56,-490.04"/>
<polygon fill="transparent" stroke="transparent" points="298.84,-488.81 292.49,-480.33 292.16,-490.92 298.84,-488.81"/>
</g>
<!-- BufferB&#45;&gt;BufferSelector -->
<g id="edge8" class="edge">
<title>BufferB&#45;&gt;BufferSelector</title>
<path fill="none" stroke="black" d="M381.45,-531.42C366.09,-518.04 344.11,-498.9 324.62,-481.94"/>
<polygon fill="black" stroke="black" points="326.86,-479.24 317.02,-475.31 322.26,-484.52 326.86,-479.24"/>
</g>
<!-- Converter0 -->
<g id="node7" class="node">
<title>Converter0</title>
<ellipse fill="none" stroke="black" cx="103" cy="-320.61" rx="62.87" ry="26.74"/>
<text text-anchor="middle" x="103" y="-324.41" font-family="Times,serif" font-size="14.00">Converter</text>
<text text-anchor="middle" x="103" y="-309.41" font-family="Times,serif" font-size="14.00">thread 0</text>
</g>
<!-- BufferSelector&#45;&gt;Converter0 -->
<g id="edge9" class="edge">
<title>BufferSelector&#45;&gt;Converter0</title>
<path fill="none" stroke="black" d="M238.36,-413.13C209.84,-393.85 172.51,-368.6 144.27,-349.51"/>
<polygon fill="black" stroke="black" points="146.07,-346.5 135.82,-343.8 142.15,-352.3 146.07,-346.5"/>
</g>
<!-- Converter1 -->
<g id="node8" class="node">
<title>Converter1</title>
<ellipse fill="none" stroke="black" cx="247" cy="-320.61" rx="62.87" ry="26.74"/>
<text text-anchor="middle" x="247" y="-324.41" font-family="Times,serif" font-size="14.00">Converter</text>
<text text-anchor="middle" x="247" y="-309.41" font-family="Times,serif" font-size="14.00">thread 1</text>
</g>
<!-- BufferSelector&#45;&gt;Converter1 -->
<g id="edge10" class="edge">
<title>BufferSelector&#45;&gt;Converter1</title>
<path fill="none" stroke="black" d="M270.8,-405.85C266.43,-390.4 261.35,-372.42 257.01,-357.05"/>
<polygon fill="black" stroke="black" points="260.37,-356.04 254.28,-347.37 253.63,-357.95 260.37,-356.04"/>
</g>
<!-- ConverterD -->
<g id="node9" class="node">
<title>ConverterD</title>
<text text-anchor="middle" x="335" y="-316.91" font-family="Times,serif" font-size="14.00">...</text>
</g>
<!-- BufferSelector&#45;&gt;ConverterD -->
<g id="edge11" class="edge">
<title>BufferSelector&#45;&gt;ConverterD</title>
<path fill="none" stroke="transparent" d="M297.06,-406.17C307.25,-383.45 319.95,-355.15 327.77,-337.73"/>
<polygon fill="transparent" stroke="transparent" points="331.03,-339 331.94,-328.44 324.65,-336.13 331.03,-339"/>
</g>
<!-- ConverterC -->
<g id="node10" class="node">
<title>ConverterC</title>
<ellipse fill="none" stroke="black" cx="429" cy="-320.61" rx="68.68" ry="26.74"/>
<text text-anchor="middle" x="429" y="-324.41" font-family="Times,serif" font-size="14.00">Converter</text>
<text text-anchor="middle" x="429" y="-309.41" font-family="Times,serif" font-size="14.00"> thread C&#45;1</text>
</g>
<!-- BufferSelector&#45;&gt;ConverterC -->
<g id="edge12" class="edge">
<title>BufferSelector&#45;&gt;ConverterC</title>
<path fill="none" stroke="black" d="M318.73,-411.28C341.31,-392.92 369.87,-369.69 392.27,-351.48"/>
<polygon fill="black" stroke="black" points="394.67,-354.04 400.22,-345.01 390.25,-348.61 394.67,-354.04"/>
</g>
<!-- Queue -->
<g id="node11" class="node">
<title>Queue</title>
<polygon fill="none" stroke="black" points="360.5,-242.74 217.5,-242.74 217.5,-204.74 360.5,-204.74 360.5,-242.74"/>
<text text-anchor="middle" x="289" y="-227.54" font-family="Times,serif" font-size="14.00">IPC message</text>
<text text-anchor="middle" x="289" y="-212.54" font-family="Times,serif" font-size="14.00">concurrent queue</text>
</g>
<!-- Converter0&#45;&gt;Queue -->
<g id="edge13" class="edge">
<title>Converter0&#45;&gt;Queue</title>
<path fill="none" stroke="black" d="M142.45,-299.49C172.31,-284.26 213.34,-263.33 244.4,-247.49"/>
<polygon fill="black" stroke="black" points="246.38,-250.41 253.69,-242.75 243.2,-244.17 246.38,-250.41"/>
</g>
<!-- Converter1&#45;&gt;Queue -->
<g id="edge14" class="edge">
<title>Converter1&#45;&gt;Queue</title>
<path fill="none" stroke="black" d="M258.48,-293.69C264.17,-280.83 271.04,-265.31 276.82,-252.24"/>
<polygon fill="black" stroke="black" points="280.15,-253.38 281,-242.82 273.75,-250.55 280.15,-253.38"/>
<text text-anchor="middle" x="278" y="-264.54" font-family="Times,serif" font-size="14.00">Arrow IPC messages</text>
</g>
<!-- ConverterD&#45;&gt;Queue -->
<g id="edge15" class="edge">
<title>ConverterD&#45;&gt;Queue</title>
<path fill="none" stroke="transparent" d="M331.84,-313.09C325.82,-300.67 312.4,-273 302.17,-251.91"/>
<polygon fill="transparent" stroke="transparent" points="305.25,-250.23 297.74,-242.76 298.95,-253.28 305.25,-250.23"/>
</g>
<!-- ConverterC&#45;&gt;Queue -->
<g id="edge16" class="edge">
<title>ConverterC&#45;&gt;Queue</title>
<path fill="none" stroke="black" d="M395.47,-296.89C373.9,-282.27 345.92,-263.31 324.06,-248.5"/>
<polygon fill="black" stroke="black" points="325.95,-245.55 315.71,-242.84 322.03,-251.35 325.95,-245.55"/>
</g>
<!-- Producer0 -->
<g id="node12" class="node">
<title>Producer0</title>
<ellipse fill="none" stroke="black" cx="91" cy="-119.87" rx="67.35" ry="26.74"/>
<text text-anchor="middle" x="91" y="-123.67" font-family="Times,serif" font-size="14.00">Pulsar</text>
<text text-anchor="middle" x="91" y="-108.67" font-family="Times,serif" font-size="14.00">Producer 0</text>
</g>
<!-- Queue&#45;&gt;Producer0 -->
<g id="edge17" class="edge">
<title>Queue&#45;&gt;Producer0</title>
<path fill="none" stroke="black" d="M253.6,-204.53C222.05,-188.29 175.55,-164.37 140.35,-146.26"/>
<polygon fill="black" stroke="black" points="141.7,-143.02 131.2,-141.55 138.5,-149.24 141.7,-143.02"/>
</g>
<!-- Producer1 -->
<g id="node13" class="node">
<title>Producer1</title>
<ellipse fill="none" stroke="black" cx="243" cy="-119.87" rx="67.35" ry="26.74"/>
<text text-anchor="middle" x="243" y="-123.67" font-family="Times,serif" font-size="14.00">Pulsar</text>
<text text-anchor="middle" x="243" y="-108.67" font-family="Times,serif" font-size="14.00">Producer 1</text>
</g>
<!-- Queue&#45;&gt;Producer1 -->
<g id="edge18" class="edge">
<title>Queue&#45;&gt;Producer1</title>
<path fill="none" stroke="black" d="M280.78,-204.53C274.68,-191.04 266.19,-172.23 258.81,-155.87"/>
<polygon fill="black" stroke="black" points="261.91,-154.25 254.61,-146.58 255.53,-157.13 261.91,-154.25"/>
</g>
<!-- ProducerD -->
<g id="node14" class="node">
<title>ProducerD</title>
<text text-anchor="middle" x="335" y="-116.17" font-family="Times,serif" font-size="14.00">...</text>
</g>
<!-- Queue&#45;&gt;ProducerD -->
<g id="edge19" class="edge">
<title>Queue&#45;&gt;ProducerD</title>
<path fill="none" stroke="transparent" d="M297.22,-204.53C305.95,-185.2 319.6,-154.97 327.88,-136.63"/>
<polygon fill="transparent" stroke="transparent" points="331.13,-137.93 332.06,-127.38 324.75,-135.05 331.13,-137.93"/>
</g>
<!-- ProducerP -->
<g id="node15" class="node">
<title>ProducerP</title>
<ellipse fill="none" stroke="black" cx="437" cy="-119.87" rx="77.15" ry="26.74"/>
<text text-anchor="middle" x="437" y="-123.67" font-family="Times,serif" font-size="14.00">Pulsar</text>
<text text-anchor="middle" x="437" y="-108.67" font-family="Times,serif" font-size="14.00">Producer P&#45;1</text>
</g>
<!-- Queue&#45;&gt;ProducerP -->
<g id="edge20" class="edge">
<title>Queue&#45;&gt;ProducerP</title>
<path fill="none" stroke="black" d="M315.46,-204.53C337.5,-189.36 369.29,-167.48 394.83,-149.9"/>
<polygon fill="black" stroke="black" points="396.97,-152.67 403.23,-144.12 393.01,-146.9 396.97,-152.67"/>
</g>
<!-- Pulsar -->
<g id="node17" class="node">
<title>Pulsar</title>
<ellipse fill="none" stroke="black" cx="272" cy="-18" rx="40.09" ry="18"/>
<text text-anchor="middle" x="272" y="-14.3" font-family="Times,serif" font-size="14.00">Pulsar</text>
</g>
<!-- Producer0&#45;&gt;Pulsar -->
<g id="edge22" class="edge">
<title>Producer0&#45;&gt;Pulsar</title>
<path fill="none" stroke="black" d="M129.39,-97.69C161.74,-79.84 207.56,-54.55 238.46,-37.5"/>
<polygon fill="black" stroke="black" points="240.48,-40.39 247.54,-32.49 237.1,-34.26 240.48,-40.39"/>
</g>
<!-- Producer1&#45;&gt;Pulsar -->
<g id="edge23" class="edge">
<title>Producer1&#45;&gt;Pulsar</title>
<path fill="none" stroke="black" d="M250.47,-93.15C254.65,-78.73 259.87,-60.76 264.12,-46.12"/>
<polygon fill="black" stroke="black" points="267.59,-46.73 267.02,-36.15 260.87,-44.78 267.59,-46.73"/>
<text text-anchor="middle" x="266" y="-57.8" font-family="Times,serif" font-size="14.00">Arrow IPC messages</text>
</g>
<!-- ProducerD&#45;&gt;Pulsar -->
<g id="edge24" class="edge">
<title>ProducerD&#45;&gt;Pulsar</title>
<path fill="none" stroke="transparent" d="M330.87,-112.32C322.26,-98.68 302.04,-66.62 287.71,-43.9"/>
<polygon fill="transparent" stroke="transparent" points="290.65,-42 282.35,-35.41 284.73,-45.73 290.65,-42"/>
</g>
<!-- ProducerP&#45;&gt;Pulsar -->
<g id="edge25" class="edge">
<title>ProducerP&#45;&gt;Pulsar</title>
<path fill="none" stroke="black" d="M399.56,-96.21C370.69,-78.73 331.19,-54.83 303.83,-38.27"/>
<polygon fill="black" stroke="black" points="305.42,-35.13 295.05,-32.95 301.79,-41.12 305.42,-35.13"/>
</g>
<!-- Source -->
<g id="node16" class="node">
<title>Source</title>
<ellipse fill="none" stroke="black" cx="275" cy="-761.43" rx="42.79" ry="18"/>
<text text-anchor="middle" x="275" y="-757.73" font-family="Times,serif" font-size="14.00">Source</text>
</g>
<!-- Source&#45;&gt;Client -->
<g id="edge21" class="edge">
<title>Source&#45;&gt;Client</title>
<path fill="none" stroke="black" d="M275,-743.36C275,-720.18 275,-678.5 275,-650.89"/>
<polygon fill="black" stroke="black" points="278.5,-650.72 275,-640.72 271.5,-650.72 278.5,-650.72"/>
<text text-anchor="middle" x="330" y="-714.23" font-family="Times,serif" font-size="14.00">Raw JSON data</text>
</g>
</g>
</svg>
