<?xml version="1.0" encoding="UTF-8" standalone="no"?>
<!DOCTYPE svg PUBLIC "-//W3C//DTD SVG 1.1//EN"
 "http://www.w3.org/Graphics/SVG/1.1/DTD/svg11.dtd">
<!-- Generated by graphviz version 2.43.0 (0)
 -->
<!-- Title: G Pages: 1 -->
<svg width="198pt" height="469pt"
 viewBox="0.00 0.00 197.50 469.00" xmlns="http://www.w3.org/2000/svg" xmlns:xlink="http://www.w3.org/1999/xlink">
<g id="graph0" class="graph" transform="scale(1 1) rotate(0) translate(4 465)">
<title>G</title>
<polygon fill="white" stroke="transparent" points="-4,4 -4,-465 193.5,-465 193.5,4 -4,4"/>
<!-- Buffer -->
<g id="node1" class="node">
<title>Buffer</title>
<polygon fill="none" stroke="black" points="119,-461 24,-461 24,-425 119,-425 119,-461"/>
<text text-anchor="middle" x="71.5" y="-439.3" font-family="Times,serif" font-size="14.00">TCP Buffer</text>
</g>
<!-- Parse -->
<g id="node2" class="node">
<title>Parse</title>
<ellipse fill="none" stroke="black" cx="71.5" cy="-326" rx="36.29" ry="18"/>
<text text-anchor="middle" x="71.5" y="-322.3" font-family="Times,serif" font-size="14.00">Parse</text>
</g>
<!-- Buffer&#45;&gt;Parse -->
<g id="edge1" class="edge">
<title>Buffer&#45;&gt;Parse</title>
<path fill="none" stroke="black" d="M71.5,-424.53C71.5,-405.94 71.5,-376.24 71.5,-354.5"/>
<polygon fill="black" stroke="black" points="75,-354.25 71.5,-344.25 68,-354.25 75,-354.25"/>
<text text-anchor="middle" x="107.5" y="-395.8" font-family="Times,serif" font-size="14.00">Newline</text>
<text text-anchor="middle" x="107.5" y="-380.8" font-family="Times,serif" font-size="14.00">separated</text>
<text text-anchor="middle" x="107.5" y="-365.8" font-family="Times,serif" font-size="14.00">JSONs</text>
</g>
<!-- Resize -->
<g id="node3" class="node">
<title>Resize</title>
<ellipse fill="none" stroke="black" cx="71.5" cy="-224" rx="40.89" ry="18"/>
<text text-anchor="middle" x="71.5" y="-220.3" font-family="Times,serif" font-size="14.00">Resize</text>
</g>
<!-- Parse&#45;&gt;Resize -->
<g id="edge2" class="edge">
<title>Parse&#45;&gt;Resize</title>
<path fill="none" stroke="black" d="M71.5,-307.58C71.5,-292.38 71.5,-270.07 71.5,-252.46"/>
<polygon fill="black" stroke="black" points="75,-252.22 71.5,-242.22 68,-252.22 75,-252.22"/>
<text text-anchor="middle" x="117.5" y="-278.8" font-family="Times,serif" font-size="14.00">Arrow</text>
<text text-anchor="middle" x="117.5" y="-263.8" font-family="Times,serif" font-size="14.00">RecordBatch</text>
</g>
<!-- Serialize -->
<g id="node4" class="node">
<title>Serialize</title>
<ellipse fill="none" stroke="black" cx="71.5" cy="-122" rx="51.19" ry="18"/>
<text text-anchor="middle" x="71.5" y="-118.3" font-family="Times,serif" font-size="14.00">Serialize</text>
</g>
<!-- Resize&#45;&gt;Serialize -->
<g id="edge3" class="edge">
<title>Resize&#45;&gt;Serialize</title>
<path fill="none" stroke="black" d="M71.5,-205.58C71.5,-190.38 71.5,-168.07 71.5,-150.46"/>
<polygon fill="black" stroke="black" points="75,-150.22 71.5,-140.22 68,-150.22 75,-150.22"/>
<text text-anchor="middle" x="130.5" y="-176.8" font-family="Times,serif" font-size="14.00">K Arrow</text>
<text text-anchor="middle" x="130.5" y="-161.8" font-family="Times,serif" font-size="14.00">RecordBatch(es)</text>
</g>
<!-- Queue -->
<g id="node5" class="node">
<title>Queue</title>
<polygon fill="none" stroke="black" points="143,-38 0,-38 0,0 143,0 143,-38"/>
<text text-anchor="middle" x="71.5" y="-22.8" font-family="Times,serif" font-size="14.00">IPC message</text>
<text text-anchor="middle" x="71.5" y="-7.8" font-family="Times,serif" font-size="14.00">concurrent queue</text>
</g>
<!-- Serialize&#45;&gt;Queue -->
<g id="edge4" class="edge">
<title>Serialize&#45;&gt;Queue</title>
<path fill="none" stroke="black" d="M71.5,-103.87C71.5,-88.69 71.5,-66.25 71.5,-48.4"/>
<polygon fill="black" stroke="black" points="75,-48.24 71.5,-38.24 68,-48.24 75,-48.24"/>
<text text-anchor="middle" x="127" y="-74.8" font-family="Times,serif" font-size="14.00">K Arrow</text>
<text text-anchor="middle" x="127" y="-59.8" font-family="Times,serif" font-size="14.00">IPC messag(es)</text>
</g>
</g>
</svg>
