<?xml version="1.0" encoding="UTF-8" standalone="no"?>
<!DOCTYPE svg PUBLIC "-//W3C//DTD SVG 1.1//EN"
 "http://www.w3.org/Graphics/SVG/1.1/DTD/svg11.dtd">
<!-- Generated by graphviz version 2.43.0 (0)
 -->
<!-- Title: %3 Pages: 1 -->
<svg width="582pt" height="44pt"
 viewBox="0.00 0.00 581.88 44.00" xmlns="http://www.w3.org/2000/svg" xmlns:xlink="http://www.w3.org/1999/xlink">
<g id="graph0" class="graph" transform="scale(1 1) rotate(0) translate(4 40)">
<title>%3</title>
<polygon fill="white" stroke="transparent" points="-4,4 -4,-40 577.88,-40 577.88,4 -4,4"/>
<!-- Source -->
<g id="node1" class="node">
<title>Source</title>
<ellipse fill="none" stroke="black" cx="42.9" cy="-18" rx="42.79" ry="18"/>
<text text-anchor="middle" x="42.9" y="-14.3" font-family="Times,serif" font-size="14.00">Source</text>
</g>
<!-- Bolson -->
<g id="node2" class="node">
<title>Bolson</title>
<ellipse fill="none" stroke="black" cx="274.04" cy="-18" rx="42.49" ry="18"/>
<text text-anchor="middle" x="274.04" y="-14.3" font-family="Times,serif" font-size="14.00">Bolson</text>
</g>
<!-- Source&#45;&gt;Bolson -->
<g id="edge1" class="edge">
<title>Source&#45;&gt;Bolson</title>
<path fill="none" stroke="black" d="M85.92,-18C124.16,-18 180.7,-18 221.62,-18"/>
<polygon fill="black" stroke="black" points="221.66,-21.5 231.66,-18 221.66,-14.5 221.66,-21.5"/>
<text text-anchor="middle" x="158.79" y="-21.8" font-family="Times,serif" font-size="14.00">Raw JSON data</text>
</g>
<!-- Pulsar -->
<g id="node3" class="node">
<title>Pulsar</title>
<ellipse fill="none" stroke="black" cx="533.58" cy="-18" rx="40.09" ry="18"/>
<text text-anchor="middle" x="533.58" y="-14.3" font-family="Times,serif" font-size="14.00">Pulsar</text>
</g>
<!-- Bolson&#45;&gt;Pulsar -->
<g id="edge2" class="edge">
<title>Bolson&#45;&gt;Pulsar</title>
<path fill="none" stroke="black" d="M316.42,-18C361.72,-18 434.35,-18 482.75,-18"/>
<polygon fill="black" stroke="black" points="483,-21.5 493,-18 483,-14.5 483,-21.5"/>
<text text-anchor="middle" x="404.78" y="-21.8" font-family="Times,serif" font-size="14.00">Arrow IPC message</text>
</g>
</g>
</svg>
